<svg width="755.001" height="74.001" viewBox="0 0 755.001 74.001" xmlns="http://www.w3.org/2000/svg"><g id="svgGroup" stroke-linecap="round" fill-rule="evenodd" font-size="9pt" stroke="#000" stroke-width="0.25mm" fill="#000" style="stroke:#000;stroke-width:0.25mm;fill:#000"><path d="M 52.5 9.5 L 47.4 18.7 Q 46.72 17.952 45.625 17.135 A 23.366 23.366 0 0 0 44.5 16.35 Q 42.6 15.1 40 14 Q 37.4 12.9 34.4 12.2 Q 31.4 11.5 28.2 11.5 Q 21.467 11.5 18.065 13.905 A 8.771 8.771 0 0 0 17.8 14.1 Q 14.4 16.7 14.4 21.3 Q 14.4 24.7 16.3 26.65 Q 17.693 28.08 20.163 29.161 A 22.903 22.903 0 0 0 22.1 29.9 A 98.354 98.354 0 0 0 25.27 30.892 Q 28.189 31.757 31.9 32.7 A 87.815 87.815 0 0 1 37.836 34.312 Q 41.419 35.428 44.4 36.75 A 23.161 23.161 0 0 1 48.559 39.103 A 17.08 17.08 0 0 1 52.5 43 Q 55.3 46.9 55.3 53.3 A 24.462 24.462 0 0 1 54.917 57.738 A 17.581 17.581 0 0 1 53.3 62.6 Q 51.3 66.5 47.7 68.95 Q 44.1 71.4 39.4 72.55 A 40.47 40.47 0 0 1 32.282 73.609 A 48.065 48.065 0 0 1 29.3 73.7 Q 24 73.7 18.75 72.6 Q 13.5 71.5 8.75 69.35 Q 4 67.2 0 64.1 L 5.1 54.5 A 13.897 13.897 0 0 0 6.13 55.423 Q 7.242 56.333 8.85 57.35 Q 11.3 58.9 14.55 60.3 A 43.09 43.09 0 0 0 19.302 62.012 A 51.226 51.226 0 0 0 21.65 62.65 Q 25.5 63.6 29.5 63.6 A 30.709 30.709 0 0 0 33.29 63.382 Q 37.282 62.884 39.75 61.25 Q 43.031 59.078 43.28 55.155 A 10.356 10.356 0 0 0 43.3 54.5 A 9.112 9.112 0 0 0 42.956 51.932 A 6.951 6.951 0 0 0 41 48.75 Q 39.313 47.173 36.497 45.946 A 28.631 28.631 0 0 0 34.3 45.1 Q 30.931 43.952 26.566 42.803 A 176.974 176.974 0 0 0 23.8 42.1 A 94.467 94.467 0 0 1 18.873 40.626 Q 15.038 39.356 12.1 37.95 A 20.728 20.728 0 0 1 8.553 35.82 A 14.924 14.924 0 0 1 5.05 32.15 Q 2.907 28.912 2.718 24.052 A 24.574 24.574 0 0 1 2.7 23.1 A 23.928 23.928 0 0 1 3.348 17.398 A 18.101 18.101 0 0 1 6.1 11.25 A 20.627 20.627 0 0 1 14.539 4.306 A 24.911 24.911 0 0 1 15.35 3.95 Q 21.2 1.5 28.5 1.5 A 39.433 39.433 0 0 1 35.419 2.091 A 35.17 35.17 0 0 1 37.6 2.55 A 41.394 41.394 0 0 1 44.942 5.069 A 38.083 38.083 0 0 1 45.65 5.4 A 42.737 42.737 0 0 1 51.315 8.655 A 38.421 38.421 0 0 1 52.5 9.5 Z M 393.8 17.1 L 385 23 A 22.218 22.218 0 0 0 382.894 19.364 A 16.655 16.655 0 0 0 379.95 16.2 A 18.493 18.493 0 0 0 374.933 13.23 A 17.178 17.178 0 0 0 373.35 12.7 Q 369.8 11.7 366.4 11.7 Q 360.8 11.7 356.6 13.95 Q 352.4 16.2 349.55 19.9 Q 346.7 23.6 345.25 28.2 Q 343.8 32.8 343.8 37.4 Q 343.8 42.5 345.5 47.25 Q 347.2 52 350.25 55.65 Q 353.3 59.3 357.5 61.4 A 20.132 20.132 0 0 0 366.078 63.492 A 23.461 23.461 0 0 0 366.7 63.5 A 21.443 21.443 0 0 0 371.292 62.983 A 26.515 26.515 0 0 0 373.8 62.3 Q 377.5 61.1 380.65 58.55 A 16.408 16.408 0 0 0 384.611 53.804 A 20.441 20.441 0 0 0 385.6 51.8 L 394.9 57.1 Q 392.7 62.4 388.05 66.1 Q 383.4 69.8 377.65 71.7 A 37.102 37.102 0 0 1 369.109 73.481 A 33.447 33.447 0 0 1 366.3 73.6 A 30.98 30.98 0 0 1 356.705 72.145 A 28.253 28.253 0 0 1 352.6 70.45 Q 346.4 67.3 341.9 62.05 Q 337.4 56.8 334.9 50.25 Q 332.4 43.7 332.4 37 Q 332.4 30.5 334.7 24.25 Q 337 18 341.45 12.85 Q 345.9 7.7 352.3 4.65 A 31.239 31.239 0 0 1 361.904 1.898 A 39.173 39.173 0 0 1 366.8 1.6 A 35.579 35.579 0 0 1 375.229 2.556 A 27.833 27.833 0 0 1 383.4 5.95 A 29.139 29.139 0 0 1 390.519 12.07 A 26.175 26.175 0 0 1 393.8 17.1 Z M 101.3 52.7 L 101.3 20.7 L 112.3 20.7 L 112.3 50.5 A 30.742 30.742 0 0 0 112.525 54.352 Q 113.057 58.554 114.85 61.05 A 8.281 8.281 0 0 0 120.933 64.526 A 12.228 12.228 0 0 0 122.3 64.6 Q 125.4 64.6 128.35 63.3 A 16.5 16.5 0 0 0 132.814 60.362 A 19.54 19.54 0 0 0 133.75 59.45 A 19.051 19.051 0 0 0 136.998 54.825 A 22.617 22.617 0 0 0 137.7 53.3 L 137.7 20.7 L 148.7 20.7 L 148.7 60.6 Q 148.7 62.241 149.222 63.062 A 1.957 1.957 0 0 0 149.4 63.3 Q 150.1 64.1 151.7 64.2 L 151.7 73 Q 150.179 73.268 149.139 73.377 A 18.37 18.37 0 0 1 148.9 73.4 A 24.225 24.225 0 0 1 147.37 73.492 A 20.862 20.862 0 0 1 146.8 73.5 A 9.003 9.003 0 0 1 144.447 73.206 A 6.955 6.955 0 0 1 141.8 71.85 Q 139.8 70.2 139.5 67.6 L 139.3 62.4 A 23.831 23.831 0 0 1 132.908 69.375 A 22.87 22.87 0 0 1 130.2 71.05 A 25.889 25.889 0 0 1 118.318 73.997 A 30.203 30.203 0 0 1 117.9 74 A 19.846 19.846 0 0 1 112.949 73.419 A 13.377 13.377 0 0 1 105.5 68.6 A 17.415 17.415 0 0 1 102.781 63.371 Q 101.959 60.91 101.594 57.896 A 43.222 43.222 0 0 1 101.3 52.7 Z M 201.4 30.6 L 201.4 0 L 212.4 0 L 212.4 60.6 Q 212.4 62.241 212.922 63.062 A 1.957 1.957 0 0 0 213.1 63.3 Q 213.8 64.1 215.4 64.2 L 215.4 73 Q 212.845 73.412 211.241 73.485 A 14.254 14.254 0 0 1 210.6 73.5 A 8.861 8.861 0 0 1 207.902 73.104 A 7.461 7.461 0 0 1 205.35 71.7 Q 203.2 69.9 203.1 67.4 L 203 63.5 Q 200 68.5 194.9 71.25 A 22.28 22.28 0 0 1 186.009 73.933 A 21.686 21.686 0 0 1 184.3 74 A 24.252 24.252 0 0 1 177.051 72.939 A 22.153 22.153 0 0 1 174.35 71.9 Q 169.8 69.8 166.45 66 Q 163.1 62.2 161.25 57.3 Q 159.4 52.4 159.4 46.9 Q 159.4 39.4 162.45 33.25 A 26.048 26.048 0 0 1 167.851 25.838 A 24.349 24.349 0 0 1 170.8 23.45 A 20.751 20.751 0 0 1 181.932 19.822 A 25.404 25.404 0 0 1 183 19.8 Q 189 19.8 193.85 22.9 A 23.741 23.741 0 0 1 199.397 27.743 A 21.607 21.607 0 0 1 201.4 30.6 Z M 502.8 30.6 L 502.8 0 L 513.8 0 L 513.8 60.6 Q 513.8 62.241 514.322 63.062 A 1.957 1.957 0 0 0 514.5 63.3 Q 515.2 64.1 516.8 64.2 L 516.8 73 Q 514.245 73.412 512.641 73.485 A 14.254 14.254 0 0 1 512 73.5 A 8.861 8.861 0 0 1 509.302 73.104 A 7.461 7.461 0 0 1 506.75 71.7 Q 504.6 69.9 504.5 67.4 L 504.4 63.5 Q 501.4 68.5 496.3 71.25 A 22.28 22.28 0 0 1 487.409 73.933 A 21.686 21.686 0 0 1 485.7 74 A 24.252 24.252 0 0 1 478.451 72.939 A 22.153 22.153 0 0 1 475.75 71.9 Q 471.2 69.8 467.85 66 Q 464.5 62.2 462.65 57.3 Q 460.8 52.4 460.8 46.9 Q 460.8 39.4 463.85 33.25 A 26.048 26.048 0 0 1 469.251 25.838 A 24.349 24.349 0 0 1 472.2 23.45 A 20.751 20.751 0 0 1 483.332 19.822 A 25.404 25.404 0 0 1 484.4 19.8 Q 490.4 19.8 495.25 22.9 A 23.741 23.741 0 0 1 500.797 27.743 A 21.607 21.607 0 0 1 502.8 30.6 Z M 711.8 63.5 L 711.8 73 L 702.1 73 L 702.1 0 L 713.1 0 L 713.1 30.6 A 24.843 24.843 0 0 1 718.324 24.525 A 22.902 22.902 0 0 1 720.85 22.7 A 19.045 19.045 0 0 1 728.387 20.029 A 24.647 24.647 0 0 1 731.8 19.8 A 21.317 21.317 0 0 1 738.525 20.84 A 19.521 19.521 0 0 1 741.3 22 Q 745.6 24.2 748.65 28 A 27.942 27.942 0 0 1 753.192 36.243 A 31.613 31.613 0 0 1 753.35 36.7 A 32.163 32.163 0 0 1 754.994 46.415 A 36.299 36.299 0 0 1 755 47.1 Q 755 52.6 753.15 57.5 Q 751.3 62.4 747.9 66.1 Q 744.5 69.8 740.05 71.9 A 22.238 22.238 0 0 1 731.449 73.975 A 26.076 26.076 0 0 1 730.3 74 Q 724.3 74 719.45 71.15 Q 714.6 68.3 711.8 63.5 Z M 677.8 43.2 L 677.8 39.9 Q 677.8 34.4 674.5 31.3 A 10.632 10.632 0 0 0 670.326 28.927 Q 668.729 28.427 666.811 28.271 A 22.312 22.312 0 0 0 665 28.2 Q 660.6 28.2 656.7 29.75 Q 652.861 31.276 648.537 34.013 A 68.839 68.839 0 0 0 648.4 34.1 L 644.7 26.7 A 45.337 45.337 0 0 1 650.893 23.178 A 37.507 37.507 0 0 1 655.15 21.5 Q 660.4 19.8 666.2 19.8 A 32.173 32.173 0 0 1 672.893 20.456 Q 677.285 21.39 680.61 23.655 A 18.893 18.893 0 0 1 682.75 25.35 A 18.046 18.046 0 0 1 688.117 34.772 A 27.614 27.614 0 0 1 688.8 41.1 L 688.8 60.6 Q 688.8 62.5 689.45 63.3 A 2.066 2.066 0 0 0 690.201 63.866 Q 690.8 64.144 691.7 64.2 L 691.7 73 A 29.134 29.134 0 0 1 690.36 73.237 Q 689.638 73.347 689 73.4 Q 687.8 73.5 687 73.5 A 11.495 11.495 0 0 1 684.979 73.334 Q 683.878 73.137 683.012 72.707 A 5.381 5.381 0 0 1 681.7 71.8 A 6.993 6.993 0 0 1 680.195 69.793 A 6.369 6.369 0 0 1 679.6 67.8 L 679.3 64.8 Q 675.9 69.2 670.6 71.6 Q 665.3 74 659.9 74 Q 654.7 74 650.6 71.85 A 16.702 16.702 0 0 1 645.724 68.06 A 15.755 15.755 0 0 1 644.2 66 A 15.343 15.343 0 0 1 641.902 57.987 A 18.234 18.234 0 0 1 641.9 57.7 A 14.773 14.773 0 0 1 642.878 52.27 A 13.744 13.744 0 0 1 644.75 48.95 Q 647.6 45.2 652.6 43.15 A 26.649 26.649 0 0 1 658.685 41.499 A 36.348 36.348 0 0 1 664.2 41.1 Q 667.7 41.1 671.35 41.6 Q 675 42.1 677.8 43.2 Z M 578 50.5 L 536.1 50.5 A 17.936 17.936 0 0 0 537.011 55.187 A 15.157 15.157 0 0 0 538.65 58.55 Q 540.9 62 544.4 63.95 Q 547.9 65.9 551.9 65.9 Q 556.3 65.9 560.25 63.7 A 13.652 13.652 0 0 0 563.084 61.638 A 10.33 10.33 0 0 0 565.6 57.9 L 575 60.6 A 19.379 19.379 0 0 1 571.276 66.08 A 23.309 23.309 0 0 1 569.85 67.45 A 25.103 25.103 0 0 1 563.279 71.61 A 29.339 29.339 0 0 1 561.7 72.25 A 28.191 28.191 0 0 1 553.618 73.933 A 33.175 33.175 0 0 1 551.5 74 A 29.954 29.954 0 0 1 545.001 73.32 A 24.96 24.96 0 0 1 540.45 71.85 Q 535.5 69.7 531.9 65.95 Q 528.3 62.2 526.35 57.35 Q 524.4 52.5 524.4 47 A 27.821 27.821 0 0 1 526.821 35.402 A 27.158 27.158 0 0 1 527.8 33.45 Q 531.2 27.3 537.3 23.55 A 25.189 25.189 0 0 1 547.154 20.097 A 32.369 32.369 0 0 1 551.6 19.8 A 30.065 30.065 0 0 1 558.765 20.617 A 23.467 23.467 0 0 1 565.75 23.55 Q 571.7 27.3 575 33.4 Q 578.3 39.5 578.3 46.5 A 25.578 25.578 0 0 1 578.261 47.941 A 21.063 21.063 0 0 1 578.2 48.75 Q 578.1 49.8 578 50.5 Z M 638 73 L 588.7 73 L 588.7 2 L 599.9 2 L 599.9 63.1 L 638 63.1 L 638 73 Z M 91.9 61.6 L 94.2 70.3 A 27.622 27.622 0 0 1 93.052 70.839 Q 92.013 71.3 90.7 71.8 Q 88.6 72.6 85.95 73.2 Q 83.3 73.8 80.5 73.8 Q 77.1 73.8 74.2 72.6 Q 71.3 71.4 69.55 68.75 A 9.948 9.948 0 0 1 68.224 65.659 Q 67.893 64.337 67.82 62.786 A 18.998 18.998 0 0 1 67.8 61.9 L 67.8 29.2 L 60.9 29.2 L 60.9 20.7 L 67.8 20.7 L 67.8 3.5 L 78.8 3.5 L 78.8 20.7 L 90.2 20.7 L 90.2 29.2 L 78.8 29.2 L 78.8 58.4 A 8.072 8.072 0 0 0 79.067 59.986 Q 79.496 61.516 80.55 62.4 A 5.512 5.512 0 0 0 83.43 63.638 A 7.35 7.35 0 0 0 84.4 63.7 Q 86.7 63.7 88.8 62.9 Q 90.408 62.288 91.371 61.851 A 15.558 15.558 0 0 0 91.9 61.6 Z M 267.922 73.402 A 30.635 30.635 0 0 0 274.1 74 A 32.075 32.075 0 0 0 277.44 73.83 A 26.036 26.036 0 0 0 285.15 71.85 Q 290.1 69.7 293.65 65.9 Q 297.2 62.1 299.1 57.25 A 27.013 27.013 0 0 0 299.33 56.641 A 28.242 28.242 0 0 0 301 46.9 Q 301 41.4 299.1 36.5 Q 297.2 31.6 293.65 27.85 Q 290.1 24.1 285.15 21.95 A 24.96 24.96 0 0 0 280.599 20.48 A 29.954 29.954 0 0 0 274.1 19.8 A 32.075 32.075 0 0 0 270.76 19.97 A 26.036 26.036 0 0 0 263.05 21.95 Q 258.1 24.1 254.55 27.85 Q 251 31.6 249.1 36.5 Q 247.2 41.4 247.2 46.9 A 31.745 31.745 0 0 0 247.2 47.072 A 28.076 28.076 0 0 0 249.1 57.25 Q 251 62.1 254.55 65.9 Q 258.1 69.7 263 71.85 A 24.485 24.485 0 0 0 267.922 73.402 Z M 421.222 73.402 A 30.635 30.635 0 0 0 427.4 74 A 32.075 32.075 0 0 0 430.74 73.83 A 26.036 26.036 0 0 0 438.45 71.85 Q 443.4 69.7 446.95 65.9 Q 450.5 62.1 452.4 57.25 A 27.013 27.013 0 0 0 452.63 56.641 A 28.242 28.242 0 0 0 454.3 46.9 Q 454.3 41.4 452.4 36.5 Q 450.5 31.6 446.95 27.85 Q 443.4 24.1 438.45 21.95 A 24.96 24.96 0 0 0 433.899 20.48 A 29.954 29.954 0 0 0 427.4 19.8 A 32.075 32.075 0 0 0 424.06 19.97 A 26.036 26.036 0 0 0 416.35 21.95 Q 411.4 24.1 407.85 27.85 Q 404.3 31.6 402.4 36.5 Q 400.5 41.4 400.5 46.9 A 31.745 31.745 0 0 0 400.5 47.072 A 28.076 28.076 0 0 0 402.4 57.25 Q 404.3 62.1 407.85 65.9 Q 411.4 69.7 416.3 71.85 A 24.485 24.485 0 0 0 421.222 73.402 Z M 237.4 73 L 226.4 73 L 226.4 20.7 L 237.4 20.7 L 237.4 73 Z M 201.4 54.2 L 201.4 40.5 Q 200.3 37.3 197.85 34.75 Q 195.4 32.2 192.35 30.7 A 14.965 14.965 0 0 0 189.029 29.508 A 12.406 12.406 0 0 0 186.3 29.2 A 14.1 14.1 0 0 0 182.082 29.816 A 12.649 12.649 0 0 0 179.95 30.7 Q 177.1 32.2 175.05 34.7 Q 173 37.2 171.9 40.4 Q 170.8 43.6 170.8 47.1 A 19.139 19.139 0 0 0 171.592 52.653 A 17.761 17.761 0 0 0 172 53.85 Q 173.2 57 175.45 59.45 Q 177.7 61.9 180.65 63.25 A 15.068 15.068 0 0 0 186.234 64.579 A 17.636 17.636 0 0 0 187.1 64.6 A 12.952 12.952 0 0 0 190.848 64.03 A 15.016 15.016 0 0 0 191.55 63.8 Q 193.8 63 195.85 61.6 Q 197.9 60.2 199.35 58.3 Q 200.8 56.4 201.4 54.2 Z M 502.8 54.2 L 502.8 40.5 Q 501.7 37.3 499.25 34.75 Q 496.8 32.2 493.75 30.7 A 14.965 14.965 0 0 0 490.429 29.508 A 12.406 12.406 0 0 0 487.7 29.2 A 14.1 14.1 0 0 0 483.482 29.816 A 12.649 12.649 0 0 0 481.35 30.7 Q 478.5 32.2 476.45 34.7 Q 474.4 37.2 473.3 40.4 Q 472.2 43.6 472.2 47.1 A 19.139 19.139 0 0 0 472.992 52.653 A 17.761 17.761 0 0 0 473.4 53.85 Q 474.6 57 476.85 59.45 Q 479.1 61.9 482.05 63.25 A 15.068 15.068 0 0 0 487.634 64.579 A 17.636 17.636 0 0 0 488.5 64.6 A 12.952 12.952 0 0 0 492.248 64.03 A 15.016 15.016 0 0 0 492.95 63.8 Q 495.2 63 497.25 61.6 Q 499.3 60.2 500.75 58.3 Q 502.2 56.4 502.8 54.2 Z M 713.1 40.5 L 713.1 54.3 Q 713.7 56.6 715.2 58.45 Q 716.7 60.3 718.7 61.65 Q 720.7 63 723 63.8 Q 725.3 64.6 727.4 64.6 A 15.548 15.548 0 0 0 732.066 63.915 A 14.127 14.127 0 0 0 734 63.15 Q 737 61.7 739.2 59.3 Q 741.4 56.9 742.55 53.7 Q 743.7 50.5 743.7 47.1 Q 743.7 42.4 741.75 38.3 A 17.077 17.077 0 0 0 737.658 32.782 A 16.484 16.484 0 0 0 736.3 31.7 A 13.455 13.455 0 0 0 728.771 29.21 A 16.56 16.56 0 0 0 728.2 29.2 Q 724.9 29.2 722 30.75 Q 719.1 32.3 716.85 34.85 Q 714.6 37.4 713.1 40.5 Z M 258.5 47 Q 258.5 52 260.6 56 A 17.327 17.327 0 0 0 263.947 60.507 A 15.785 15.785 0 0 0 266.2 62.3 Q 269.7 64.6 274.1 64.6 Q 278.4 64.6 281.95 62.25 A 16.574 16.574 0 0 0 287.263 56.472 A 19.69 19.69 0 0 0 287.6 55.85 Q 289.7 51.8 289.7 46.9 Q 289.7 41.9 287.6 37.9 Q 285.5 33.9 281.95 31.55 Q 278.4 29.2 274.1 29.2 Q 269.7 29.2 266.2 31.6 Q 262.7 34 260.6 37.95 A 17.921 17.921 0 0 0 258.666 44.222 A 22.626 22.626 0 0 0 258.5 47 Z M 411.8 47 Q 411.8 52 413.9 56 A 17.327 17.327 0 0 0 417.247 60.507 A 15.785 15.785 0 0 0 419.5 62.3 Q 423 64.6 427.4 64.6 Q 431.7 64.6 435.25 62.25 A 16.574 16.574 0 0 0 440.563 56.472 A 19.69 19.69 0 0 0 440.9 55.85 Q 443 51.8 443 46.9 Q 443 41.9 440.9 37.9 Q 438.8 33.9 435.25 31.55 Q 431.7 29.2 427.4 29.2 Q 423 29.2 419.5 31.6 Q 416 34 413.9 37.95 A 17.921 17.921 0 0 0 411.966 44.222 A 22.626 22.626 0 0 0 411.8 47 Z M 535.8 43.2 L 567.4 43.2 A 17.33 17.33 0 0 0 566.356 38.226 A 15.273 15.273 0 0 0 564.85 35.25 Q 562.6 31.8 559.15 29.85 A 15.214 15.214 0 0 0 551.778 27.902 A 17.932 17.932 0 0 0 551.5 27.9 Q 547.4 27.9 543.95 29.85 Q 540.5 31.8 538.3 35.25 A 16.08 16.08 0 0 0 535.979 41.549 A 19.587 19.587 0 0 0 535.8 43.2 Z M 677.8 56 L 677.8 50 Q 675 48.9 671.9 48.35 Q 668.8 47.8 665.8 47.8 A 24.567 24.567 0 0 0 661.778 48.11 Q 658.452 48.662 656.05 50.2 A 8.858 8.858 0 0 0 653.839 52.157 Q 652.312 54.094 652.3 56.758 A 9.371 9.371 0 0 0 652.3 56.8 A 8.427 8.427 0 0 0 653.436 61.003 A 10.02 10.02 0 0 0 653.55 61.2 A 9.086 9.086 0 0 0 656.409 64.152 A 11.126 11.126 0 0 0 657.15 64.6 Q 659.275 65.776 662.341 65.888 A 17.98 17.98 0 0 0 663 65.9 Q 666.6 65.9 669.9 64.5 A 17.494 17.494 0 0 0 672.708 63.012 A 13.074 13.074 0 0 0 675.2 60.9 Q 676.4 59.6 677.1 58.3 Q 677.8 57 677.8 56 Z M 237.4 12.1 L 226.4 12.1 L 226.4 0 L 237.4 0 L 237.4 12.1 Z" vector-effect="non-scaling-stroke"/></g></svg>